PathFileType	4	(X/Y/Z)	C:\Users\Basilio\Documents\Thesis Gigler\squatting_fais\c3dfiles\054\SLS_front_pre4\markers_experimental.trc
DataRate	CameraRate	NumFrames	NumMarkers	Units	OrigDataRate	OrigDataStartFrame	OrigNumFrames
200.000000	200.000000	4	61	mm	200.000000	1065	1421
Frame#	Time	FHD			LBHD			RBHD			C7			T10			CLAV			LSHO			LUUPA			LMUPA			LDUPA			LLEP			LMEP			LRAD			LUL			LRFIN			RSHO			RUPA1			RMUPA			RDUPA			RLEP			RMEP			RRAD			RUL			RUFIN			LASI			RASI			USACR			LSACR			RSACR			LTHI1			LTHI2			LTHI3			LTHI4			LLFC			LMFC			LTIB1			LTIB2			LTIB3			LTIB4			LLMAL			LMMAL			LHEE			LMT1			LMT2			LMT5			RTHI			RTHI2			RTHI3			RTHI4			RLFC			RMFC			RTIB1			RTIB2			RTIB3			RTIB4			RLMAL			RMMAL			RHEE			RMT1			RMT2			RMT5			
		X1	Y1	Z1	X2	Y2	Z2	X3	Y3	Z3	X4	Y4	Z4	X5	Y5	Z5	X6	Y6	Z6	X7	Y7	Z7	X8	Y8	Z8	X9	Y9	Z9	X10	Y10	Z10	X11	Y11	Z11	X12	Y12	Z12	X13	Y13	Z13	X14	Y14	Z14	X15	Y15	Z15	X16	Y16	Z16	X17	Y17	Z17	X18	Y18	Z18	X19	Y19	Z19	X20	Y20	Z20	X21	Y21	Z21	X22	Y22	Z22	X23	Y23	Z23	X24	Y24	Z24	X25	Y25	Z25	X26	Y26	Z26	X27	Y27	Z27	X28	Y28	Z28	X29	Y29	Z29	X30	Y30	Z30	X31	Y31	Z31	X32	Y32	Z32	X33	Y33	Z33	X34	Y34	Z34	X35	Y35	Z35	X36	Y36	Z36	X37	Y37	Z37	X38	Y38	Z38	X39	Y39	Z39	X40	Y40	Z40	X41	Y41	Z41	X42	Y42	Z42	X43	Y43	Z43	X44	Y44	Z44	X45	Y45	Z45	X46	Y46	Z46	X47	Y47	Z47	X48	Y48	Z48	X49	Y49	Z49	X50	Y50	Z50	X51	Y51	Z51	X52	Y52	Z52	X53	Y53	Z53	X54	Y54	Z54	X55	Y55	Z55	X56	Y56	Z56	X57	Y57	Z57	X58	Y58	Z58	X59	Y59	Z59	X60	Y60	Z60	X61	Y61	Z61	

1066	5.325	-263.0883483886719	1813.098510742188	-1070.564453125	-413.692596435547	1745.241577148438	-1151.65966796875	-440.1775817871095	1742.401000976563	-1013.543823242188	-451.0082092285157	1574.776733398438	-1070.973999023438	-478.3074645996095	1248.31494140625	-1059.593994140625	-303.6886596679688	1524.786743164063	-1067.188720703125	-372.1820068359376	1572.6552734375	-1220.505004882813	-210.6648406982422	1473.051391601563	-1340.299926757813	-181.2620086669922	1508.912719726563	-1323.614013671875	-142.158203125	1471.511352539063	-1349.221923828125	-84.88547515869142	1478.853881835938	-1344.221313476563	-80.86144256591798	1409.388305664063	-1305.974487304688	166.2496032714844	1505.202758789063	-1253.485595703125	187.9813537597657	1484.388427734375	-1325.494995117188	257.5507202148438	1534.02197265625	-1264.46826171875	-380.1640625000001	1583.229858398438	-926.4628906250002	-233.7259368896485	1491.158203125	-778.0161132812502	-199.3004760742188	1522.341186523438	-790.1151123046877	-166.2401885986328	1480.337524414063	-757.8245849609376	-121.0315170288086	1477.292358398438	-757.4947509765626	-118.2887725830078	1415.0576171875	-800.7078247070315	139.4753112792969	1541.950805664063	-856.9132080078127	147.3150634765625	1507.028442382813	-785.3090820312502	216.9445343017579	1572.836791992188	-844.4831542968752	-290.8344726562501	1063.040771484375	-1142.123413085938	-312.8407287597657	1113.709594726563	-897.3608398437502	-486.1535949707032	1160.579833984375	-1044.717651367188	-488.5003356933595	1125.146362304688	-1066.154663085938	-494.876434326172	1133.524047851563	-1010.416259765625	-369.6781311035157	814.1726684570315	-1200.12451171875	-334.8677978515626	735.9755249023439	-1191.453125	-288.6263427734376	742.4155273437501	-1183.486572265625	-363.1174011230469	684.8310546875001	-1170.328491210938	-355.2698669433594	532.9031372070314	-1139.221069335938	-335.3887939453126	539.7153930664064	-999.8459472656252	-297.0717773437501	380.6092834472657	-1071.692749023438	-335.2254638671876	324.7520751953126	-1128.174560546875	-297.5192565917969	328.9956359863282	-1101.571533203125	-298.2561340332032	254.5261840820313	-1061.971069335938	-340.8554382324219	111.4771270751953	-1096.035888671875	-313.0241088867188	133.9706420898438	-1005.428100585938	-408.6018371582032	102.7170791625977	-1036.754028320313	-199.7502746582032	55.37443161010744	-1016.783020019531	-189.7975616455078	57.93936920166017	-1065.376708984375	-242.5741424560547	42.16409301757813	-1116.341430664063	-227.0565338134766	850.2695312500002	-800.2635498046877	-162.642807006836	830.405944824219	-805.0364379882815	-137.7386779785157	849.3939208984377	-816.2258911132815	-138.6376342773438	750.8502807617189	-813.2016601562502	-106.769889831543	672.5426025390626	-812.3468017578127	-80.24588775634767	682.3557739257814	-947.1203613281252	-38.03270721435548	575.7527465820314	-821.4080200195315	-98.04541015625003	497.5762939453126	-778.7325439453127	-53.70594024658205	493.9394531250001	-793.3408813476565	-37.52789688110352	445.0184631347657	-818.938171386719	-81.3273162841797	268.8776245117188	-787.471618652344	-48.39536285400392	278.1813049316407	-877.0739746093752	-141.0455017089844	223.9524078369141	-839.685241699219	80.77204895019533	212.2727050781251	-854.630065917969	86.30682373046876	226.6226196289063	-809.3064575195315	39.76645278930665	212.9588012695313	-757.4301147460939	
1067	5.33	-262.6074523925782	1813.064819335938	-1070.468994140625	-413.1141967773439	1745.218505859375	-1151.788696289063	-439.8984680175782	1742.437744140625	-1013.712585449219	-450.5321655273439	1574.703125	-1070.944213867188	-477.7918701171876	1248.219848632813	-1059.386352539063	-303.1908264160157	1524.6904296875	-1067.060180664063	-371.9304809570313	1572.376342773438	-1220.490478515625	-210.3980560302735	1472.524291992188	-1340.171264648438	-180.9329376220703	1508.570922851563	-1323.591674804688	-141.8418731689453	1471.120483398438	-1349.07421875	-84.63172149658205	1478.517700195313	-1344.115600585938	-80.51655578613283	1409.023193359375	-1305.695190429688	166.7215881347657	1505.326538085938	-1253.247802734375	188.2688446044922	1484.294555664063	-1325.228515625	257.7457275390626	1534.135131835938	-1264.322631835938	-379.7492065429688	1583.153564453125	-926.435729980469	-233.4925689697266	1491.165771484375	-777.8780517578127	-199.0422363281251	1522.330810546875	-789.8831176757815	-166.0546875	1480.507568359375	-758.7293701171876	-120.815544128418	1477.50244140625	-757.2225952148439	-117.97802734375	1415.097045898438	-800.369323730469	139.7463531494141	1541.741455078125	-856.3116455078127	147.632568359375	1507.402465820313	-784.845886230469	217.2668914794922	1573.183959960938	-843.9897460937502	-290.1788024902344	1062.898559570313	-1141.713256835938	-312.5935363769532	1113.523681640625	-896.9517211914065	-485.395477294922	1160.5009765625	-1044.70263671875	-488.016815185547	1125.04638671875	-1066.128295898438	-494.3494567871095	1133.45361328125	-1010.362670898438	-369.2869262695313	814.2789306640627	-1200.090942382813	-334.5597534179688	735.9375610351564	-1191.334838867188	-288.3087158203126	742.3361816406251	-1183.17626953125	-363.3008422851563	684.9727783203126	-1170.235717773438	-355.4016418457032	532.9327392578126	-1139.19580078125	-336.1753540039063	539.6445922851564	-999.6550292968752	-297.2958374023438	380.6252136230469	-1071.563720703125	-335.2584533691407	324.7657775878907	-1128.274780273438	-297.5564575195313	329.0605468750001	-1101.5087890625	-298.3497924804688	254.5373077392579	-1062.016723632813	-340.9429321289063	111.4647521972657	-1096.027221679688	-313.1310119628907	133.9256744384766	-1005.460693359375	-408.6033935546876	102.7167510986328	-1036.80029296875	-199.7587432861329	55.35483551025392	-1016.77197265625	-189.7918853759766	57.96692276000978	-1065.377685546875	-242.5668334960938	42.13435363769532	-1116.330810546875	-227.0809326171876	849.9761352539065	-799.7678222656252	-162.9270324707032	830.0797119140627	-804.3489379882815	-137.7756652832032	848.8151855468752	-815.5596923828127	-139.0931854248047	750.3652954101564	-812.4805908203127	-107.476188659668	671.9384765625001	-811.414245605469	-80.55078125000001	681.5106811523439	-945.9964599609377	-39.72720336914063	574.8626708984376	-819.858825683594	-100.6306915283203	497.187713623047	-777.4183349609377	-56.310604095459	493.2390747070314	-791.904235839844	-40.75365447998048	443.9895935058595	-817.350280761719	-86.14173889160158	268.2482604980469	-785.7231445312502	-52.74339294433595	277.0718688964844	-875.1604614257815	-145.9212646484375	224.0605926513672	-838.2794189453127	74.6803665161133	210.4332580566407	-852.4127197265627	80.98696136474611	224.5650024414063	-807.034606933594	34.10744857788087	211.4009857177735	-754.9645385742189	
1068	5.335	-262.2028503417969	1812.950805664063	-1070.31005859375	-412.6766052246095	1745.150146484375	-1151.8935546875	-439.5900268554689	1742.382202148438	-1013.870422363281	-450.1529235839845	1574.620239257813	-1070.912231445313	-477.329315185547	1248.123413085938	-1059.219360351563	-302.7643737792969	1524.60595703125	-1066.993530273438	-371.6067810058594	1572.059326171875	-1220.432495117188	-210.1552276611329	1472.026245117188	-1340.025390625	-180.5679931640625	1508.152465820313	-1323.603637695313	-141.1801452636719	1470.308471679688	-1348.758056640625	-84.29500579833986	1478.173828125	-1344.03857421875	-80.15811157226564	1408.773193359375	-1305.521728515625	166.8307800292969	1505.248901367188	-1253.131225585938	188.6207580566407	1484.147216796875	-1324.908325195313	258.0070495605469	1534.138427734375	-1264.1220703125	-379.4128723144532	1583.145141601563	-926.3572387695315	-233.1852569580079	1491.205444335938	-777.6530761718752	-198.6688690185547	1522.361938476563	-789.7259521484377	-165.917221069336	1480.535766601563	-758.5897827148439	-120.4363174438477	1477.6044921875	-756.9885253906251	-117.3708038330078	1415.296875	-800.227722167969	139.8563690185547	1542.607177734375	-855.9190063476565	147.8241729736328	1507.7822265625	-784.3397216796877	217.5718383789063	1573.546020507813	-843.446716308594	-289.6163940429688	1062.866943359375	-1141.345581054688	-312.3538818359376	1113.428100585938	-896.5253906250002	-485.0404663085939	1160.470947265625	-1044.576782226563	-487.4549560546876	1124.988159179688	-1066.052490234375	-493.7327880859376	1133.357666015625	-1010.272521972656	-368.8169250488282	814.3527832031252	-1199.9765625	-334.3367614746094	735.9282836914064	-1191.229614257813	-287.9968261718751	742.2687988281251	-1182.862548828125	-363.0088500976563	684.9601440429689	-1170.233520507813	-355.5337829589844	532.8987426757814	-1139.076904296875	-336.6307373046876	539.4710083007814	-999.534118652344	-297.4148254394532	380.6105041503907	-1071.506591796875	-335.3210754394532	324.7749023437501	-1128.301147460938	-297.6354980468751	329.1691589355469	-1101.474487304688	-298.3659667968751	254.5248565673829	-1061.985595703125	-341.0711975097657	111.451904296875	-1096.031494140625	-313.1644897460938	133.9199829101563	-1005.464965820313	-408.6878051757814	102.6888427734375	-1036.79052734375	-199.7207031250001	55.36369705200197	-1016.785461425781	-189.7505035400391	57.81915283203126	-1065.315795898438	-242.4646911621094	42.24446868896485	-1116.53564453125	-227.332260131836	849.4801025390627	-799.133728027344	-163.3365325927735	829.5891113281252	-803.6228637695315	-137.9834899902344	848.1533203125002	-814.9570312500002	-139.5513763427735	749.8722534179689	-811.4443359375002	-108.4929275512696	671.5225219726564	-810.1008300781252	-80.96547698974611	680.6583251953126	-944.8999633789065	-41.53072357177735	573.6923217773439	-818.477233886719	-103.3760147094727	496.8154296875001	-776.0158691406252	-58.91633224487306	492.384246826172	-790.4091796875002	-43.60126876831055	442.9191284179689	-815.7169189453127	-90.79048156738283	267.7854003906251	-784.1242675781252	-57.05492401123048	276.0455017089844	-873.4265136718752	-150.9363098144532	223.9224395751954	-836.7006835937502	70.29280090332033	207.9490966796876	-850.1622314453127	76.15673065185548	222.4152984619141	-804.7117919921877	28.8371696472168	209.9308471679688	-752.9550170898439	
1069	5.34	-261.6783447265626	1812.891235351563	-1070.220947265625	-412.1115112304689	1745.127563476563	-1152.00634765625	-438.9139404296876	1742.434448242188	-1014.049682617188	-449.8504638671876	1574.558959960938	-1070.83251953125	-476.929656982422	1248.0849609375	-1059.052734375	-302.3783264160157	1524.509643554688	-1066.8623046875	-371.2279357910157	1571.814819335938	-1220.352905273438	-208.9350280761719	1471.463745117188	-1339.9111328125	-180.371322631836	1507.692138671875	-1323.552368164063	-140.8268585205078	1469.805786132813	-1348.63916015625	-83.93824005126955	1477.772338867188	-1343.9208984375	-79.79137420654298	1408.451416015625	-1305.147338867188	167.2112274169922	1504.973754882813	-1253.042114257813	188.9920806884766	1483.98388671875	-1324.626831054688	258.1752624511719	1534.325927734375	-1264.046997070313	-379.1671142578126	1583.088012695313	-926.2232055664065	-232.9564514160157	1491.205688476563	-777.448425292969	-198.3997802734376	1522.389892578125	-789.509460449219	-165.7304992675782	1480.58251953125	-758.4322509765626	-120.0318984985352	1477.7509765625	-756.8002319335939	-116.8972320556641	1415.4287109375	-799.9462890625002	140.1958923339844	1542.871704101563	-855.466247558594	147.9931335449219	1508.041259765625	-783.9678955078127	217.7919464111329	1573.929565429688	-842.967712402344	-288.5938110351563	1062.452270507813	-1140.937866210938	-312.1275939941407	1113.339965820313	-896.1140747070315	-484.4483947753907	1160.426147460938	-1044.428588867188	-486.8836364746095	1124.946655273438	-1065.858764648438	-493.9291381835939	1133.404541015625	-1010.079711914063	-368.3399353027344	814.418640136719	-1199.936401367188	-334.1353454589844	735.8466796875001	-1191.084350585938	-287.7468872070313	742.1914672851564	-1182.615112304688	-362.8138122558594	685.0216064453126	-1170.201049804688	-355.5630798339844	532.9331054687501	-1139.035522460938	-336.7401123046876	539.4880981445314	-999.5015869140627	-297.5189819335938	380.5124206542969	-1071.434936523438	-335.3642272949219	324.7776794433594	-1128.314575195313	-297.8443908691407	329.1602172851563	-1101.427490234375	-298.3661804199219	254.5150909423829	-1061.948852539063	-341.1170959472657	111.5235061645508	-1095.981689453125	-313.2304992675782	133.8757476806641	-1005.501281738281	-408.6480102539064	102.6660614013672	-1036.831420898438	-199.7170867919922	55.36169433593751	-1016.767028808594	-189.7380676269532	57.82585906982423	-1065.393310546875	-242.4646453857422	42.21157836914063	-1116.506103515625	-227.6641387939454	849.0579223632815	-798.4506835937502	-163.7086944580078	829.1298828125002	-803.0718994140627	-138.3018493652344	847.657653808594	-814.2752685546877	-140.2088317871094	749.2158813476564	-810.357849121094	-109.2939834594727	670.9152221679689	-809.2537841796877	-81.5908889770508	679.6334838867189	-943.7686767578127	-43.44983291625977	572.6347045898439	-817.0633544921877	-105.9161148071289	496.1551208496095	-774.6684570312502	-61.47190093994142	491.5054626464845	-788.8305664062502	-46.46345901489259	441.8175659179689	-814.1463623046877	-95.42514801025392	267.3167724609376	-782.4038696289065	-61.38439178466798	275.1926879882813	-871.6849365234377	-155.9481353759766	223.8381042480469	-835.0808715820315	65.65470123291017	205.7877655029297	-847.9666748046877	70.91985321044923	220.3182067871094	-802.6008300781252	23.39474487304688	208.532211303711	-750.8201293945314	
